<?xml version="1.0" encoding="utf-8"?>
<!-- Uploaded to: SVG Repo, www.svgrepo.com, Generator: SVG Repo Mixer Tools -->
<svg fill="#000000" width="800px" height="800px" viewBox="0 0 32 32" version="1.1" xmlns="http://www.w3.org/2000/svg">
<title>open</title>
<path d="M28 31h-24c-1.657 0-3-1.344-3-3v-14c0-1.657 1.343-3 3-3h24c1.656 0 3 1.343 3 3v14c0 1.656-1.344 3-3 3zM8 18.041c-1.657 0-3 1.567-3 3.5 0 1.934 1.343 3.5 3 3.5s3-1.566 3-3.5c0-1.933-1.344-3.5-3-3.5zM15.78 18.898c-0.115-0.237-0.269-0.422-0.458-0.553-0.19-0.132-0.426-0.221-0.707-0.268-0.2-0.037-0.49-0.055-0.87-0.055h-1.783v6.914h1.008v-2.016h0.842c0.81 0 1.368-0.356 1.679-0.693 0.309-0.338 0.464-1.812 0.464-2.299-0.001-0.282-0.059-0.793-0.175-1.030zM21.024 23.945h-3.058v-2.008h2.956v-0.93h-2.956v-2.055h3.050v-0.93h-3.995v6.914h4.003v-0.991zM26.954 18.023h-0.914v5.31l-3.012-5.31h-1.027v6.914h0.977v-5.061l3.012 5.061h0.965v-6.914zM13.823 21.93h-0.853v-2.977h0.838c0.343 0 0.578 0.017 0.706 0.051 0.197 0.055 0.357 0.166 0.478 0.336s0.182 0.375 0.182 0.613c0 0.33-0.103 1.522-0.309 1.704s-0.553 0.273-1.042 0.273zM8 24.125c-1.104 0-2-1.119-2-2.5s0.896-2.5 2-2.5 2 1.119 2 2.5-0.896 2.5-2 2.5zM25 11l-7.322-5.45c-0.344 0.277-0.775 0.45-1.25 0.45-0.662 0-1.244-0.325-1.607-0.821l-7.821 5.821h-1l8.493-6.518c-0.038-0.155-0.065-0.315-0.065-0.482 0-1.104 0.896-2 2-2 1.105 0 2 0.896 2 2 0 0.359-0.103 0.692-0.269 0.984l7.841 6.016h-1z"></path>
</svg>